<svg xmlns="http://www.w3.org/2000/svg" viewBox="0 0 120 120" role="img" aria-label="Narsil"><line x1="10" y1="60" x2="110" y2="60" fill="none" stroke="#22c55e" stroke-width="1.6" stroke-linecap="round"/><g fill="none" stroke="#dc2626" stroke-width="1.8" stroke-linecap="round"><line x1="16" y1="60" x2="16" y2="60"/><line x1="19.67" y1="52.31" x2="19.67" y2="67.69"/><line x1="23.33" y1="47.58" x2="23.33" y2="72.42"/><line x1="27" y1="43.66" x2="27" y2="76.34"/><line x1="30.67" y1="40.3" x2="30.67" y2="79.7"/><line x1="34.33" y1="37.39" x2="34.33" y2="82.61"/><line x1="38" y1="34.89" x2="38" y2="85.11"/><line x1="41.67" y1="32.79" x2="41.67" y2="87.21"/><line x1="45.33" y1="31.07" x2="45.33" y2="88.93"/><line x1="49" y1="29.73" x2="49" y2="90.27"/><line x1="52.67" y1="28.77" x2="52.67" y2="91.23"/><line x1="56.33" y1="28.19" x2="56.33" y2="91.81"/><line x1="60" y1="28" x2="60" y2="92"/><line x1="63.67" y1="28.19" x2="63.67" y2="91.81"/><line x1="67.33" y1="28.77" x2="67.33" y2="91.23"/><line x1="71" y1="29.73" x2="71" y2="90.27"/><line x1="74.67" y1="31.07" x2="74.67" y2="88.93"/><line x1="78.33" y1="32.79" x2="78.33" y2="87.21"/><line x1="82" y1="34.89" x2="82" y2="85.11"/><line x1="85.67" y1="37.39" x2="85.67" y2="82.61"/><line x1="89.33" y1="40.3" x2="89.33" y2="79.7"/><line x1="93" y1="43.66" x2="93" y2="76.34"/><line x1="96.67" y1="47.58" x2="96.67" y2="72.42"/><line x1="100.33" y1="52.31" x2="100.33" y2="67.69"/><line x1="104" y1="60" x2="104" y2="60"/></g></svg>
